<svg width="37" height="40" viewBox="0 0 37 40" fill="none" xmlns="http://www.w3.org/2000/svg">
<path d="M20.5642 34.6234L21.8719 23.3019C21.8884 23.1577 21.7767 23.03 21.6277 23.0259C21.5201 23.0259 21.4291 23.0918 21.3918 23.1907L17.291 34.8211C16.9848 35.6863 16.091 36.1972 15.1889 36.0118C13.8233 35.7357 12.3915 35.2578 10.9184 34.5039C11.9322 37.6886 14.924 39.9957 18.4579 39.9957C21.9919 39.9957 24.9837 37.6886 25.9975 34.5039C25.9975 34.5039 24.4706 35.402 22.025 35.9376C21.2139 36.1148 20.469 35.4391 20.5642 34.6192V34.6234Z" fill="#1137F5"/>
<path d="M6.37074 31.0476C5.8121 30.4379 6.02728 29.4573 6.78868 29.1277L17.2911 24.5959C17.4277 24.5382 17.4815 24.3775 17.407 24.2498C17.3532 24.1592 17.2497 24.1097 17.1463 24.1303L4.98034 26.4086C4.07824 26.5775 3.18028 26.0584 2.89062 25.1933C2.45198 23.879 2.1499 22.4041 2.06714 20.7603C-0.196389 23.2281 -0.705372 26.9607 1.06159 30.0053C2.82854 33.054 6.32936 34.4795 9.60671 33.7585C9.60671 33.7585 8.06321 32.8892 6.37074 31.0517V31.0476Z" fill="#1137F5"/>
<path d="M2.80372 15.1034C3.052 14.3165 4.01203 14.0116 4.67826 14.5019L13.8731 21.2915C13.9889 21.378 14.1586 21.345 14.2331 21.2214C14.2869 21.1308 14.2786 21.0154 14.2083 20.9372L6.14728 11.5809C5.54726 10.8846 5.5514 9.85466 6.1597 9.17076C7.08249 8.13254 8.21632 7.13553 9.60671 6.24152C6.32936 5.52465 2.82854 6.95014 1.06159 9.99473C-0.705372 13.0435 -0.196389 16.7761 2.06714 19.2398C2.06714 19.2398 2.05059 17.4765 2.80372 15.0952V15.1034Z" fill="#1137F5"/>
<path d="M16.3475 5.37233L15.0399 16.6938C15.0233 16.838 15.1351 16.9657 15.284 16.9657C15.3916 16.9657 15.4826 16.8998 15.5199 16.8009L19.6249 5.17046C19.9311 4.30528 20.8249 3.79442 21.727 3.97981C23.0926 4.25996 24.5243 4.73375 25.9975 5.48769C24.9795 2.30714 21.9877 0 18.4538 0C14.9199 0 11.928 2.30714 10.9142 5.49181C10.9142 5.49181 12.4412 4.59368 14.8868 4.05809C15.6978 3.88093 16.4427 4.5566 16.3475 5.37645V5.37233Z" fill="#1137F5"/>
<path d="M27.3051 6.24565C27.3051 6.24565 28.8486 7.11495 30.5411 8.95242C31.0998 9.56216 30.8846 10.5427 30.1232 10.8682L19.6207 15.4C19.4842 15.4577 19.4304 15.6184 19.5049 15.7461C19.5587 15.8368 19.6621 15.8862 19.7656 15.8656L31.9315 13.5873C32.8336 13.4184 33.7274 13.9375 34.0212 14.8027C34.4599 16.1169 34.762 17.5959 34.8447 19.2357C37.1082 16.7678 37.6172 13.0352 35.8503 9.99063C34.0833 6.94191 30.5825 5.51643 27.3051 6.23741V6.24565Z" fill="#1137F5"/>
<path d="M34.1081 24.8967C33.8598 25.6836 32.8998 25.9885 32.2336 25.4982L23.0388 18.7086C22.9229 18.6221 22.7533 18.6551 22.6788 18.7787C22.625 18.8693 22.6332 18.9846 22.7036 19.0629L30.7687 28.4151C31.3687 29.1113 31.3646 30.1413 30.7521 30.8252C29.8294 31.8634 28.6955 32.8604 27.3051 33.7544C30.5825 34.4713 34.0833 33.0458 35.8503 30.0012C37.6172 26.9566 37.1082 23.2199 34.8447 20.7562C34.8447 20.7562 34.8613 22.5195 34.1081 24.9008V24.8967Z" fill="#1137F5"/>
</svg>
